<svg width="760" height="514" viewBox="0 0 760 514" fill="none" xmlns="http://www.w3.org/2000/svg">
<g id="fatherhood+1 1">
<g id="fatherhood 1">
<g id="Group">
<path id="Vector" opacity="0.1" d="M8.20877 279.401C20.2248 327.617 45.662 369.295 85.8561 389.524C169.408 431.508 357.823 409.85 498.436 384.975C569.492 372.448 633.989 337.836 681.542 286.711L8.20877 279.401Z" fill="#6C63FF"/>
<path id="Vector_2" opacity="0.1" d="M745.609 52.4479H668.454C666.686 52.4479 664.991 51.7886 663.741 50.6151C662.491 49.4416 661.788 47.8499 661.788 46.1903C661.788 44.5307 662.491 42.9389 663.741 41.7655C664.991 40.5919 666.686 39.9326 668.454 39.9326H681.792C680.06 39.8802 678.418 39.1977 677.213 38.0292C676.008 36.8608 675.334 35.2981 675.334 33.6717C675.334 32.0453 676.008 30.4826 677.213 29.3142C678.418 28.1457 680.06 27.4631 681.792 27.4107H672.267C670.536 27.3584 668.894 26.6758 667.689 25.5074C666.484 24.339 665.809 22.7763 665.809 21.1498C665.809 19.5234 666.484 17.9608 667.689 16.7923C668.894 15.6238 670.536 14.9413 672.267 14.8889H712.538C703.602 10.99 693.157 8.21535 681.12 6.75978C571.315 -6.47685 532.11 2.28259 518.281 11.3084C501.219 22.4202 482.184 30.5948 461.842 34.5327C394.092 47.6523 267.391 63.4427 152.553 29.4771C95.4772 12.5821 53.0612 41.1217 27.631 88.7918H759.003C758.048 74.9379 755.189 62.1496 749.942 50.9469C748.738 51.9196 747.201 52.4524 745.609 52.4479Z" fill="#6C63FF"/>
<path id="Vector_3" opacity="0.1" d="M1.66085 178.765C-1.30253 206.805 -0.297072 235.09 4.65101 262.883L682.062 286.146C700.923 265.78 716.753 243.11 729.129 218.754L1.66085 178.765ZM269.585 238.768H256.247C258.015 238.768 259.71 239.428 260.96 240.601C262.21 241.775 262.913 243.366 262.913 245.026C262.913 246.685 262.21 248.277 260.96 249.45C259.71 250.624 258.015 251.283 256.247 251.283H179.091C177.323 251.283 175.628 250.624 174.378 249.45C173.128 248.277 172.426 246.685 172.426 245.026C172.426 243.366 173.128 241.775 174.378 240.601C175.628 239.428 177.323 238.768 179.091 238.768H192.429C190.697 238.715 189.056 238.033 187.85 236.865C186.645 235.696 185.971 234.134 185.971 232.507C185.971 230.881 186.645 229.318 187.85 228.15C189.056 226.981 190.697 226.299 192.429 226.246H182.905C181.173 226.194 179.531 225.511 178.326 224.343C177.121 223.175 176.447 221.612 176.447 219.985C176.447 218.359 177.121 216.796 178.326 215.628C179.531 214.459 181.173 213.777 182.905 213.724H260.061C261.793 213.777 263.434 214.459 264.64 215.628C265.845 216.796 266.519 218.359 266.519 219.985C266.519 221.612 265.845 223.175 264.64 224.343C263.434 225.511 261.793 226.194 260.061 226.246H269.585C271.317 226.299 272.959 226.981 274.164 228.15C275.369 229.318 276.043 230.881 276.043 232.507C276.043 234.134 275.369 235.696 274.164 236.865C272.959 238.033 271.317 238.715 269.585 238.768Z" fill="#6C63FF"/>
<path id="Vector_4" opacity="0.1" d="M759.037 89.2077L19.4703 106.103C10.4722 127.813 4.54028 152.343 1.77161 177.796H746.08C750.939 162.852 754.532 147.57 756.83 132.095C759.044 117.143 759.93 102.678 759.037 89.2077ZM151.917 144.546H138.579C139.454 144.546 140.321 144.707 141.129 145.022C141.938 145.336 142.673 145.797 143.291 146.379C143.911 146.96 144.402 147.649 144.737 148.409C145.072 149.168 145.244 149.981 145.244 150.803C145.244 151.625 145.072 152.439 144.737 153.198C144.402 153.957 143.911 154.647 143.291 155.228C142.673 155.809 141.938 156.27 141.129 156.585C140.321 156.899 139.454 157.061 138.579 157.061H61.4226C59.6548 157.061 57.9593 156.401 56.7094 155.228C55.4593 154.055 54.757 152.463 54.757 150.803C54.757 149.144 55.4593 147.552 56.7094 146.379C57.9593 145.205 59.6548 144.546 61.4226 144.546H74.7607C73.0289 144.493 71.3871 143.811 70.182 142.642C68.9769 141.474 68.303 139.911 68.303 138.285C68.303 136.658 68.9769 135.095 70.182 133.927C71.3871 132.759 73.0289 132.076 74.7607 132.024H65.2364C63.5049 131.971 61.863 131.289 60.6578 130.12C59.4526 128.952 58.7788 127.389 58.7788 125.763C58.7788 124.136 59.4526 122.574 60.6578 121.405C61.863 120.237 63.5049 119.555 65.2364 119.502H142.392C144.124 119.555 145.766 120.237 146.971 121.405C148.176 122.574 148.85 124.136 148.85 125.763C148.85 127.389 148.176 128.952 146.971 130.12C145.766 131.289 144.124 131.971 142.392 132.024H151.917C153.648 132.076 155.29 132.759 156.495 133.927C157.7 135.095 158.375 136.658 158.375 138.285C158.375 139.911 157.7 141.474 156.495 142.642C155.29 143.811 153.648 144.493 151.917 144.546Z" fill="#6C63FF"/>
<path id="Vector_5" opacity="0.1" d="M390.126 513.93C523.475 513.93 631.575 508.437 631.575 501.662C631.575 494.886 523.475 489.393 390.126 489.393C256.778 489.393 148.677 494.886 148.677 501.662C148.677 508.437 256.778 513.93 390.126 513.93Z" fill="#6C63FF"/>
<path id="Vector_6" d="M590.571 411.449C590.571 411.449 594.371 416.121 588.813 423.145C583.255 430.17 578.673 436.142 580.507 440.541C580.507 440.541 588.889 427.447 595.734 427.265C602.58 427.083 598.074 419.324 590.571 411.449Z" fill="#6C63FF"/>
<path id="Vector_7" opacity="0.1" d="M590.571 411.449C590.899 411.901 591.159 412.393 591.346 412.911C598.005 420.26 601.549 427.116 595.153 427.285C589.187 427.447 582.036 437.454 580.327 439.982C580.381 440.178 580.448 440.371 580.528 440.56C580.528 440.56 588.91 427.467 595.755 427.285C602.601 427.103 598.074 419.324 590.571 411.449Z" fill="black"/>
<path id="Vector_8" d="M597.638 417.401C597.638 419.045 597.444 420.377 597.202 420.377C596.96 420.377 596.759 419.045 596.759 417.401C596.759 415.757 597.008 416.53 597.25 416.53C597.493 416.53 597.638 415.757 597.638 417.401Z" fill="#FFD037"/>
<path id="Vector_9" d="M600.06 419.363C598.524 420.15 597.188 420.624 597.07 420.423C596.953 420.221 598.109 419.422 599.645 418.636C601.182 417.849 600.573 418.421 600.69 418.636C600.808 418.85 601.597 418.577 600.06 419.363Z" fill="#FFD037"/>
<path id="Vector_10" d="M570.484 411.449C570.484 411.449 566.684 416.121 572.242 423.145C577.8 430.17 582.376 436.142 580.548 440.541C580.548 440.541 572.159 427.447 565.321 427.265C558.482 427.083 562.974 419.324 570.484 411.449Z" fill="#6C63FF"/>
<path id="Vector_11" opacity="0.1" d="M570.484 411.449C570.153 411.899 569.892 412.392 569.709 412.911C563.05 420.26 559.5 427.116 565.902 427.285C571.862 427.447 579.053 437.454 580.728 439.982C580.673 440.177 580.604 440.365 580.528 440.56C580.528 440.56 572.138 427.467 565.3 427.285C558.461 427.103 562.974 419.324 570.484 411.449Z" fill="black"/>
<path id="Vector_12" d="M563.417 417.401C563.417 419.045 563.611 420.377 563.853 420.377C564.095 420.377 564.296 419.045 564.296 417.401C564.296 415.757 564.047 416.53 563.805 416.53C563.562 416.53 563.417 415.757 563.417 417.401Z" fill="#FFD037"/>
<path id="Vector_13" d="M560.988 419.363C562.524 420.15 563.867 420.624 563.985 420.423C564.102 420.221 562.946 419.422 561.41 418.636C559.873 417.849 560.482 418.421 560.365 418.636C560.247 418.85 559.451 418.577 560.988 419.363Z" fill="#FFD037"/>
<path id="Vector_14" d="M564.628 439.949C564.628 439.949 575.26 439.637 578.472 437.5C581.683 435.362 594.828 432.795 595.624 436.2C596.42 439.605 611.599 453.283 599.597 453.374C587.595 453.465 571.709 451.62 568.512 449.794C565.314 447.968 564.628 439.949 564.628 439.949Z" fill="#A8A8A8"/>
<path id="Vector_15" opacity="0.2" d="M599.804 452.211C587.802 452.302 571.917 450.457 568.719 448.631C566.283 447.234 565.314 442.237 564.988 439.936H564.635C564.635 439.936 565.328 447.981 568.505 449.813C571.682 451.646 587.588 453.485 599.59 453.394C603.051 453.394 604.255 452.211 604.186 450.496C603.701 451.548 602.379 452.192 599.804 452.211Z" fill="black"/>
<path id="Vector_16" d="M186.359 443.601C187.629 442.628 188.556 441.316 189.017 439.839C189.356 438.351 188.678 436.59 187.162 436.011C185.459 435.401 183.639 436.512 182.254 437.629C180.87 438.747 179.299 440.027 177.492 439.787C178.421 438.997 179.116 437.995 179.509 436.877C179.902 435.76 179.98 434.566 179.735 433.412C179.656 432.934 179.441 432.485 179.112 432.113C178.164 431.164 176.454 431.567 175.319 432.314C171.72 434.692 170.716 439.287 170.695 443.413C170.335 441.925 170.64 440.372 170.633 438.864C170.626 437.357 170.176 435.615 168.805 434.816C167.955 434.39 167 434.179 166.037 434.205C164.417 434.147 162.618 434.302 161.51 435.407C160.126 436.791 160.493 439.105 161.69 440.606C162.887 442.107 164.701 443.081 166.369 444.128C167.712 444.877 168.857 445.901 169.719 447.123C169.817 447.297 169.9 447.477 169.968 447.663H180.109C182.378 446.579 184.48 445.213 186.359 443.601Z" fill="#6C63FF"/>
<path id="Vector_17" d="M105.77 453.855C105.77 453.855 96.0379 422.853 107.59 400.038C112.508 390.496 113.994 379.712 111.826 369.308C110.757 364.381 109.206 359.557 107.196 354.896" stroke="#535461" stroke-width="2" stroke-miterlimit="10"/>
<path id="Vector_18" d="M114.36 340.47C114.36 344.271 107.036 355.292 107.036 355.292C107.036 355.292 99.7064 344.245 99.7064 340.47C99.7652 338.682 100.563 336.986 101.93 335.741C103.298 334.496 105.128 333.8 107.033 333.8C108.938 333.8 110.768 334.496 112.136 335.741C113.503 336.986 114.301 338.682 114.36 340.47Z" fill="#6C63FF"/>
<path id="Vector_19" d="M126.473 361.517C124.278 364.708 111.743 370.218 111.743 370.218C111.743 370.218 111.972 357.222 114.173 354.038C115.255 352.561 116.907 351.539 118.779 351.188C120.651 350.838 122.596 351.187 124.198 352.161C125.8 353.135 126.934 354.658 127.359 356.405C127.784 358.153 127.466 359.987 126.473 361.517Z" fill="#6C63FF"/>
<path id="Vector_20" d="M125.946 397.484C122.333 399.193 108.552 398.011 108.552 398.011C108.552 398.011 115.737 386.905 119.35 385.196C120.212 384.768 121.156 384.505 122.127 384.424C123.098 384.342 124.077 384.443 125.006 384.721C125.935 384.999 126.796 385.448 127.538 386.042C128.28 386.636 128.887 387.363 129.326 388.181C129.765 388.998 130.026 389.889 130.093 390.803C130.16 391.716 130.033 392.633 129.718 393.499C129.404 394.365 128.908 395.164 128.26 395.849C127.613 396.533 126.826 397.089 125.946 397.484Z" fill="#6C63FF"/>
<path id="Vector_21" d="M119.018 424.614C115.765 426.875 101.97 427.863 101.97 427.863C101.97 427.863 107.05 415.783 110.276 413.522C111.043 412.931 111.931 412.492 112.885 412.233C113.839 411.974 114.839 411.9 115.824 412.015C116.81 412.129 117.76 412.431 118.618 412.9C119.475 413.37 120.222 413.999 120.813 414.748C121.404 415.497 121.827 416.351 122.056 417.259C122.284 418.166 122.314 419.107 122.144 420.025C121.973 420.944 121.606 421.82 121.064 422.601C120.522 423.382 119.816 424.051 118.99 424.568L119.018 424.614Z" fill="#6C63FF"/>
<path id="Vector_22" d="M96.3632 370.953C99.2634 373.597 112.788 376.346 112.788 376.346C112.788 376.346 109.473 363.733 106.559 361.082C105.874 360.426 105.058 359.904 104.155 359.549C103.253 359.194 102.284 359.012 101.305 359.013C100.327 359.015 99.3589 359.201 98.4584 359.559C97.5579 359.917 96.7425 360.442 96.0607 361.101C95.3789 361.76 94.8453 362.54 94.4895 363.396C94.1344 364.252 93.9655 365.165 93.9925 366.083C94.0188 367.002 94.2417 367.906 94.6466 368.742C95.0509 369.578 95.6302 370.33 96.3494 370.953H96.3632Z" fill="#6C63FF"/>
<path id="Vector_23" d="M88.6871 402.774C92.3002 404.483 106.081 403.3 106.081 403.3C106.081 403.3 98.8966 392.201 95.2834 390.486C93.553 389.708 91.5672 389.598 89.7516 390.179C87.9361 390.761 86.4355 391.987 85.5716 393.595C84.7085 395.203 84.5514 397.066 85.1335 398.782C85.7163 400.497 86.992 401.931 88.6871 402.774Z" fill="#6C63FF"/>
<path id="Vector_24" d="M85.7523 434.666C89.0055 436.921 102.793 437.915 102.793 437.915C102.793 437.915 97.7199 425.835 94.4874 423.574C92.9218 422.594 91.0148 422.216 89.1612 422.519C87.3076 422.823 85.6491 423.784 84.5292 425.203C83.4093 426.623 82.9137 428.392 83.1456 430.146C83.3768 431.899 84.3181 433.501 85.7731 434.621L85.7523 434.666Z" fill="#6C63FF"/>
<path id="Vector_25" d="M114.36 340.47C114.36 344.271 107.036 355.292 107.036 355.292C107.036 355.292 99.7064 344.245 99.7064 340.47C99.7652 338.682 100.563 336.986 101.93 335.741C103.298 334.496 105.128 333.8 107.033 333.8C108.938 333.8 110.768 334.496 112.136 335.741C113.503 336.986 114.301 338.682 114.36 340.47Z" fill="#6C63FF"/>
<path id="Vector_26" d="M126.473 361.517C124.278 364.708 111.743 370.218 111.743 370.218C111.743 370.218 111.972 357.222 114.173 354.038C115.255 352.561 116.907 351.539 118.779 351.188C120.651 350.838 122.596 351.187 124.198 352.161C125.8 353.135 126.934 354.658 127.359 356.405C127.784 358.153 127.466 359.987 126.473 361.517Z" fill="#6C63FF"/>
<path id="Vector_27" d="M125.946 397.484C122.333 399.193 108.552 398.011 108.552 398.011C108.552 398.011 115.737 386.905 119.35 385.196C120.212 384.768 121.156 384.505 122.127 384.424C123.098 384.342 124.077 384.443 125.006 384.721C125.935 384.999 126.796 385.448 127.538 386.042C128.28 386.636 128.887 387.363 129.326 388.181C129.765 388.998 130.026 389.889 130.093 390.803C130.16 391.716 130.033 392.633 129.718 393.499C129.404 394.365 128.908 395.164 128.26 395.849C127.613 396.533 126.826 397.089 125.946 397.484Z" fill="#6C63FF"/>
<path id="Vector_28" d="M119.018 424.614C115.765 426.875 101.97 427.863 101.97 427.863C101.97 427.863 107.05 415.783 110.276 413.522C111.043 412.931 111.931 412.492 112.885 412.233C113.839 411.974 114.839 411.9 115.824 412.015C116.81 412.129 117.76 412.431 118.618 412.9C119.475 413.37 120.222 413.999 120.813 414.748C121.404 415.497 121.827 416.351 122.056 417.259C122.284 418.166 122.314 419.107 122.144 420.025C121.973 420.944 121.606 421.82 121.064 422.601C120.522 423.382 119.816 424.051 118.99 424.568L119.018 424.614Z" fill="#6C63FF"/>
<path id="Vector_29" d="M96.3632 370.953C99.2634 373.597 112.788 376.346 112.788 376.346C112.788 376.346 109.473 363.733 106.559 361.082C105.874 360.426 105.058 359.904 104.155 359.549C103.253 359.194 102.284 359.012 101.305 359.013C100.327 359.015 99.3589 359.201 98.4584 359.559C97.5579 359.917 96.7425 360.442 96.0607 361.101C95.3789 361.76 94.8453 362.54 94.4895 363.396C94.1344 364.252 93.9655 365.165 93.9925 366.083C94.0188 367.002 94.2417 367.906 94.6466 368.742C95.0509 369.578 95.6302 370.33 96.3494 370.953H96.3632Z" fill="#6C63FF"/>
<path id="Vector_30" d="M88.6871 402.774C92.3002 404.483 106.081 403.3 106.081 403.3C106.081 403.3 98.8966 392.201 95.2834 390.486C93.553 389.708 91.5672 389.598 89.7516 390.179C87.9361 390.761 86.4355 391.987 85.5716 393.595C84.7085 395.203 84.5514 397.066 85.1335 398.782C85.7163 400.497 86.992 401.931 88.6871 402.774Z" fill="#6C63FF"/>
<path id="Vector_31" d="M85.7523 434.666C89.0055 436.921 102.793 437.915 102.793 437.915C102.793 437.915 97.7199 425.835 94.4874 423.574C92.9218 422.594 91.0148 422.216 89.1612 422.519C87.3076 422.823 85.6491 423.784 84.5292 425.203C83.4093 426.623 82.9137 428.392 83.1456 430.146C83.3768 431.899 84.3181 433.501 85.7731 434.621L85.7523 434.666Z" fill="#6C63FF"/>
<path id="Vector_32" d="M82.7552 451.906C82.7552 451.906 94.6051 449.697 97.7614 446.753C100.918 443.809 115.135 438.656 116.713 442.334C118.291 446.012 138.032 458.527 124.604 460.737C111.176 462.946 93.0201 463.68 89.0747 462.205C85.1293 460.73 82.7552 451.906 82.7552 451.906Z" fill="#A8A8A8"/>
<path id="Vector_33" opacity="0.2" d="M124.624 459.359C111.203 461.569 93.0408 462.303 89.0955 460.834C86.0915 459.71 84.0011 454.336 83.1774 451.821L82.7552 451.906C82.7552 451.906 85.1293 460.737 89.0747 462.205C93.0201 463.674 111.183 462.94 124.604 460.737C128.48 460.087 129.587 458.599 129.172 456.708C128.86 457.936 127.511 458.885 124.624 459.359Z" fill="black"/>
<path id="Vector_34" d="M303.834 219.963C303.834 219.963 301.515 237.8 319.906 239.626L322.674 227.279L316.881 219.963L308.582 217.324L303.834 219.963Z" fill="#6C63FF"/>
<path id="Vector_35" opacity="0.1" d="M308.582 217.324L303.834 219.956C303.834 219.956 301.515 237.793 319.906 239.619" fill="black"/>
<path id="Vector_36" d="M337.203 119.105C337.203 119.105 324.792 119.82 312.347 121.757C311.074 121.96 309.807 122.177 308.547 122.407C307.814 122.536 307.094 122.673 306.374 122.822C299.854 124.083 293.915 125.721 290.454 127.813C286.301 130.315 284.917 123.576 284.785 114.212C284.73 110.918 284.847 107.305 285.034 103.653C285.277 99.4292 285.63 95.1535 286.003 91.3066C286.827 82.7811 287.775 76.153 287.775 76.153C287.775 76.153 292.122 76.153 297.929 75.9646L299.798 75.8996C301.619 75.8346 303.55 75.7436 305.495 75.6332C306.415 75.5877 307.343 75.5357 308.263 75.4707C311.946 75.2238 315.58 74.8729 318.646 74.418C321.913 73.9242 324.564 73.3004 326.004 72.4686C332.579 68.7907 337.203 119.105 337.203 119.105Z" fill="#F8BDC5"/>
<path id="Vector_37" d="M392.5 184.97L390.078 200.065C390.078 200.065 384.796 206.239 385.489 209.67C386.181 213.101 392.272 364.727 392.272 364.727C392.272 364.727 404.212 428.76 400.066 436.993C395.92 445.226 399.823 464.441 399.823 464.441L424.672 460.782L432.978 180.85L392.5 184.97Z" fill="#474463"/>
<path id="Vector_38" opacity="0.1" d="M392.5 184.97L390.078 200.065C390.078 200.065 384.796 206.239 385.489 209.67C386.181 213.101 392.272 364.727 392.272 364.727C392.272 364.727 404.212 428.76 400.066 436.993C395.92 445.226 399.823 464.441 399.823 464.441L424.672 460.782L432.978 180.85L392.5 184.97Z" fill="black"/>
<path id="Vector_39" d="M447.313 468.327C446.524 469.555 446.586 473.168 446.808 476.241C447.001 478.886 447.313 481.134 447.313 481.134V496.684C447.313 496.684 420.761 487.996 406.143 478.847C400.114 475.072 398.397 471.563 398.73 468.755C399.214 464.759 403.852 462.153 406.143 462.153C408.33 462.153 415.238 458.573 420.9 455.408C425.35 452.933 429.047 450.717 429.047 450.717C429.047 450.717 448.773 466.039 447.313 468.327Z" fill="#575988"/>
<path id="Vector_40" opacity="0.1" d="M447.313 468.327C446.524 469.555 446.586 473.168 446.808 476.241C440.904 473.642 422.623 456.994 420.9 455.408C425.351 452.933 429.047 450.717 429.047 450.717C429.047 450.717 448.773 466.039 447.313 468.327Z" fill="black"/>
<path id="Vector_41" d="M501.883 195.491L495.55 217.448C495.55 217.448 491.895 224.076 491.397 227.279C490.899 230.483 487.5 235.285 487.5 235.285C485.962 238.446 485.133 241.87 485.064 245.344C484.822 251.524 480.219 280.109 475.076 284.911L473.858 303.437C473.858 303.437 469.012 306.634 472.397 311.235C475.782 315.836 474.591 327.701 474.591 327.701C474.591 327.701 469.961 331.132 472.889 334.563C475.816 337.994 473.858 348.06 473.858 348.06C473.858 348.06 471.179 351.257 472.397 353.089C473.615 354.922 471.193 402.033 471.193 402.033L465.337 425.127C465.337 425.127 462.651 444.342 461.184 450.06C459.717 455.779 459.724 462.862 459.724 462.862C459.724 462.862 453.39 475.442 448.76 474.76C444.129 474.077 421.724 453.485 421.724 453.485L424.887 383.955C424.887 383.955 427.565 354.454 425.863 348.735C424.16 343.017 422.942 314.432 422.942 314.432L419.529 269.381L385.461 219.066C385.461 219.066 382.99 204.426 390.05 200.085L391.33 192.177L392.486 184.99L432.93 180.87L494.803 165.781C494.803 165.781 499.572 168.543 502.07 175.438C503.78 180.084 504.438 186.634 501.883 195.491Z" fill="#474463"/>
<path id="Vector_42" d="M394.231 218.624C394.231 218.624 365.485 251.764 366.703 242.504C367.465 236.689 363.533 229.586 360.474 225.096C358.667 222.425 357.172 220.677 357.172 220.677C357.172 220.677 374.712 190.494 375.688 194.607C375.999 195.907 378.027 198.889 380.636 202.294C386.139 209.429 394.231 218.624 394.231 218.624Z" fill="#FFC1C8"/>
<path id="Vector_43" opacity="0.3" d="M447.313 493.448V496.697C447.313 496.697 420.761 488.009 406.143 478.86C400.114 475.085 398.397 471.576 398.73 468.768C406.8 472.602 421.813 479.913 426.361 483.207C430.223 486.001 440.204 490.427 447.313 493.448Z" fill="white"/>
<g id="SKATE">
<g id="Group 8">
<g id="Group 7">
<g id="Group 6">
<g id="Group 5">
<g id="Group 4">
<g id="Group 3">
<g id="Group 2">
<g id="Group 1">
<g id="skate">
<path id="Vector_44" d="M478.696 489.755C478.65 490.298 478.487 490.826 478.218 491.308L473.373 496.266L405.651 495.246L387.44 494.967C387.44 494.967 349.108 488.417 341.64 485.363C334.171 482.309 304.809 476.72 304.809 476.72C304.809 476.72 287.076 473.926 284.474 465.849C283.594 463.113 284.037 461.157 285 459.767C286.889 457.044 290.807 456.472 290.807 456.472C298.809 454.253 307.365 454.549 315.171 457.317L428.687 484.732L430.445 485.155C430.445 485.155 470.909 484.446 471.726 484.583C477.934 485.649 478.841 488.124 478.696 489.755Z" fill="#6C63FF"/>
<path id="Vector_45" opacity="0.3" d="M478.696 489.755C471.885 488.924 460.007 487.696 456.948 488.878C456.948 488.878 435.345 486.37 405.624 495.246L387.44 494.967C387.44 494.967 349.108 488.417 341.64 485.363C334.171 482.309 304.809 476.72 304.809 476.72C304.809 476.72 287.076 473.926 284.474 465.849C283.594 463.113 284.037 461.157 285 459.767C286.211 463.081 288.543 467.883 292.267 469.228C298.116 471.34 322.155 475.642 322.155 475.642L369.735 486.578C369.735 486.578 397.207 492.173 407.901 488.527C412.282 487.046 420.505 485.727 428.666 484.693L430.424 485.116C430.424 485.116 470.888 484.407 471.705 484.544C477.934 485.649 478.841 488.124 478.696 489.755Z" fill="white"/>
</g>
</g>
</g>
</g>
</g>
</g>
</g>
</g>
</g>
</g>
<path id="Vector_46" d="M412.857 481.94C412.799 482.898 412.672 483.851 412.476 484.793C412.476 484.793 385.565 485.696 371.555 483.747C367.686 483.207 365.499 482.044 364.412 480.653C363.927 479.997 363.626 479.235 363.538 478.44C363.449 477.645 363.577 476.842 363.907 476.105C364.062 475.681 364.258 475.272 364.495 474.883C365.54 473.168 367.146 471.953 368.025 472.115C370.462 472.576 374.642 467.885 374.642 467.885C374.31 465.019 379.107 463.986 379.854 464.454C379.988 464.55 380.145 464.612 380.312 464.635C380.479 464.657 380.648 464.638 380.805 464.581C380.962 464.523 381.1 464.429 381.206 464.306C381.313 464.184 381.383 464.038 381.412 463.882C381.46 463.667 381.474 462.634 381.474 461.426C381.474 459.411 381.412 456.877 381.412 456.877L408.462 459.964L409.534 464.818C410.517 469.145 411.888 475.091 412.476 477.125C412.885 478.7 413.014 480.327 412.857 481.94Z" fill="#474463"/>
<path id="Vector_47" opacity="0.1" d="M412.857 481.94C412.799 482.898 412.672 483.851 412.476 484.793C412.476 484.793 385.565 485.696 371.555 483.747C367.686 483.207 365.499 482.044 364.412 480.654C368.004 480.452 372.677 480.342 375.57 481.004C379.695 481.966 404.371 481.966 412.857 481.94Z" fill="black"/>
<g id="Group 42">
<g id="Group 41">
<g id="Group 40">
<g id="Group 39">
<g id="Group 38">
<g id="Group 37">
<g id="Group 36">
<g id="Group 35">
<g id="Group 34">
<g id="Group 33">
<g id="Group 32">
<g id="Group 31">
<g id="Group 30">
<g id="Group 29">
<g id="Group 28">
<g id="Group 27">
<g id="Group 26">
<g id="Group 25">
<g id="Group 24">
<g id="Group 23">
<g id="Group 22">
<g id="Group 21">
<g id="Group 20">
<g id="Group 19">
<g id="Group 18">
<g id="Group 17">
<g id="Group 16">
<g id="Group 15">
<g id="Group 14">
<g id="Group 13">
<g id="Group 12">
<g id="Group 11">
<g id="Group 10">
<path id="Vector_48" d="M364.467 474.87C364.497 475.105 364.458 475.343 364.354 475.558C364.25 475.773 364.086 475.957 363.879 476.092C360.474 478.561 344.132 475.877 344.132 475.877C344.132 475.877 310.741 473.928 305.751 470.731C305.3 470.453 304.924 470.082 304.65 469.646C302.574 466.124 310.091 460.21 310.741 460.21C311.392 460.21 320.369 459.06 320.972 458.95C325.125 458.164 329.278 455.746 329.97 456.435C330.662 457.124 334.123 455.519 335.812 455.291C336.428 455.207 336.711 454.388 336.815 453.342C336.913 451.926 336.862 450.505 336.663 449.099L363.332 455.837L363.568 459.827L364.336 473.109L364.433 474.74C364.449 474.782 364.461 474.826 364.467 474.87Z" fill="#474463"/>
</g>
</g>
</g>
</g>
</g>
</g>
</g>
</g>
</g>
</g>
</g>
</g>
</g>
</g>
</g>
</g>
</g>
</g>
</g>
</g>
</g>
</g>
</g>
</g>
</g>
</g>
</g>
</g>
</g>
</g>
</g>
</g>
</g>
<g id="Group 127">
<g id="Group 126">
<g id="Group 125">
<g id="Group 124">
<g id="Group 123">
<g id="Group 122">
<g id="Group 121">
<g id="Group 120">
<g id="Group 119">
<g id="Group 118">
<g id="Group 117">
<g id="Group 116">
<g id="Group 115">
<g id="Group 114">
<g id="Group 113">
<g id="Group 112">
<g id="Group 111">
<g id="Group 110">
<g id="Group 109">
<g id="Group 108">
<g id="Group 107">
<g id="Group 106">
<g id="Group 105">
<g id="Group 104">
<g id="Group 103">
<g id="Group 102">
<g id="Group 101">
<g id="Group 100">
<g id="Group 99">
<g id="Group 98">
<g id="Group 97">
<g id="Group 96">
<g id="Group 95">
<g id="Group 94">
<g id="Group 93">
<g id="Group 92">
<g id="Group 91">
<g id="Group 90">
<g id="Group 89">
<g id="Group 88">
<g id="Group 87">
<g id="Group 86">
<g id="Group 85">
<g id="Group 84">
<g id="Group 83">
<g id="Group 82">
<g id="Group 81">
<g id="Group 80">
<g id="Group 79">
<g id="Group 78">
<g id="Group 77">
<g id="Group 76">
<g id="Group 75">
<g id="Group 74">
<g id="Group 73">
<g id="Group 72">
<g id="Group 71">
<g id="Group 70">
<g id="Group 69">
<g id="Group 68">
<g id="Group 67">
<g id="Group 66">
<g id="Group 65">
<g id="Group 64">
<g id="Group 63">
<g id="Group 62">
<g id="Group 61">
<g id="Group 60">
<g id="Group 59">
<g id="Group 58">
<g id="Group 57">
<g id="Group 56">
<g id="Group 55">
<g id="Group 54">
<g id="Group 53">
<g id="Group 52">
<g id="Group 51">
<g id="Group 50">
<g id="Group 49">
<g id="Group 48">
<g id="Group 47">
<g id="Group 46">
<g id="Group 45">
<g id="Group 44">
<g id="Group 43">
<path id="Vector_49" opacity="0.1" d="M344.159 482.412C344.159 482.412 310.769 478.418 305.779 471.869C305.328 471.299 304.951 470.539 304.678 469.646C311.44 470.711 322.716 472.508 324.751 473.506C327.679 474.837 344.132 476.781 344.132 476.781H364.364L364.46 480.122C365.34 489.547 344.159 482.412 344.159 482.412Z" fill="black"/>
</g>
</g>
</g>
</g>
</g>
</g>
</g>
</g>
</g>
</g>
</g>
</g>
</g>
</g>
</g>
</g>
</g>
</g>
</g>
</g>
</g>
</g>
</g>
</g>
</g>
</g>
</g>
</g>
</g>
</g>
</g>
</g>
</g>
</g>
</g>
</g>
</g>
</g>
</g>
</g>
</g>
</g>
</g>
</g>
</g>
</g>
</g>
</g>
</g>
</g>
</g>
</g>
</g>
</g>
</g>
</g>
</g>
</g>
</g>
</g>
</g>
</g>
</g>
</g>
</g>
</g>
</g>
</g>
</g>
</g>
</g>
</g>
</g>
</g>
</g>
</g>
</g>
</g>
</g>
</g>
</g>
</g>
</g>
</g>
</g>
<path id="Vector_50" d="M323.076 228.196C323.076 228.196 321.539 230.795 319.227 234.655C313.69 243.83 303.73 260.095 299.445 265.241C293.354 272.558 293.846 265.703 287.263 250.38C282.376 238.982 297.417 225.941 305.46 220.015C308.229 217.955 310.167 216.765 310.167 216.765L323.076 228.196Z" fill="#F8BDC5"/>
<path id="Vector_51" d="M352.548 245.806C352.548 245.806 332.33 247.404 328.433 248.548C324.536 249.691 307.73 249.003 306.284 248.548C304.837 248.093 276.071 254.266 289.229 260.439C302.387 266.612 310.686 260.439 310.686 260.439C310.686 260.439 327.741 259.523 332.143 262.044C336.545 264.566 352.604 263.188 352.604 263.188L352.548 245.806Z" fill="#FFC1C8"/>
<path id="Vector_52" opacity="0.1" d="M310.548 105.843C313.039 111.828 311.482 117.039 308.547 122.387C301.196 123.687 294.282 125.474 290.433 127.793C279.469 134.428 287.754 76.1075 287.754 76.1075C287.754 76.1075 293.056 76.1075 299.777 75.8541C297.742 84.5746 305.453 93.6264 310.548 105.843Z" fill="black"/>
<path id="Vector_53" d="M311.17 104.543C311.157 114.122 307.389 123.361 300.584 130.498C293.778 137.635 284.413 142.17 274.274 143.239C264.134 144.307 253.931 141.835 245.61 136.292C237.288 130.749 231.431 122.525 229.156 113.188C226.881 103.85 228.347 94.0527 233.274 85.6649C238.201 77.2772 246.245 70.8863 255.871 67.71C265.497 64.5344 276.031 64.7963 285.465 68.4463C294.898 72.0956 302.57 78.8777 307.017 87.4987C309.758 92.8116 311.179 98.6397 311.17 104.543Z" fill="#F8BDC5"/>
<path id="Vector_54" opacity="0.1" d="M502.084 175.418C500.769 177.215 498.8 178.498 496.547 179.025C487.043 181.539 420.048 196.634 415.667 195.718C411.798 194.912 395.193 192.671 391.365 192.157L392.521 184.97L432.964 180.85L494.837 165.762C494.837 165.762 499.585 168.524 502.084 175.418Z" fill="black"/>
<path id="Vector_55" opacity="0.1" d="M337.203 119.105C329.284 119.551 321.395 120.375 313.565 121.575C313.677 121.24 313.662 120.88 313.524 120.555L329.721 118.677C329.721 118.677 327.353 82.937 318.646 74.3725C321.913 73.8787 324.564 73.2549 326.004 72.4231C332.579 68.7907 337.203 119.105 337.203 119.105Z" fill="black"/>
<path id="Vector_56" d="M316.016 65.4312C316.016 65.4312 330.392 64.216 332.337 61.9287C334.282 59.6413 348.174 58.959 348.174 58.959C348.174 58.959 354.992 57.8154 356.48 56.2103C357.968 54.6053 394.964 52.5519 398.619 54.3844C402.274 56.2168 405.686 57.354 407.88 57.5879C410.074 57.8219 427.122 69.2455 428.825 69.2455C430.528 69.2455 477.277 110.645 477.277 110.645C477.277 110.645 482.122 121.165 484.102 121.62C486.081 122.075 503.593 163.702 503.593 163.702C503.593 163.702 506.03 173.761 496.533 176.282C487.036 178.804 420.035 193.892 415.653 192.976C411.272 192.06 390.562 189.317 390.562 189.317C390.562 189.317 390.804 189.317 390.32 186.803C389.835 184.288 389.102 184.97 390.071 182.683C391.04 180.396 392.023 180.623 390.804 179.252C389.586 177.881 390.804 177.192 386.907 174.905C383.011 172.617 378.602 170.103 378.38 169.42C378.159 168.738 374.725 164.157 373.023 163.929C371.32 163.702 323.567 151.122 323.567 151.122L312.361 147.691C312.361 147.691 307.004 144.26 308.208 142.206C309.412 140.153 313.559 121.575 313.559 121.575L330.69 119.593C330.69 119.593 328.136 80.8642 318.542 74.366C308.949 67.8679 316.016 65.4312 316.016 65.4312Z" fill="#6C63FF"/>
<path id="Vector_57" opacity="0.1" d="M323.076 228.196C323.076 228.196 321.539 230.795 319.227 234.655C318.867 222.724 309.98 220.411 305.46 220.015C308.229 217.955 310.167 216.765 310.167 216.765L323.076 228.196Z" fill="black"/>
<path id="Vector_58" d="M311.17 141.517L312.347 147.691C312.347 147.691 316.978 152.954 316.978 154.553C316.978 156.151 322.335 160.726 323.803 163.241C325.27 165.755 330.378 166.217 328.426 170.564C326.474 174.911 315.275 208.071 315.275 208.071L303.827 219.963C303.827 219.963 322.827 218.358 319.899 239.626L344.505 219.482L363.775 186.569C363.775 186.569 345.017 153.182 344.291 150.439C343.564 147.697 311.17 141.517 311.17 141.517Z" fill="#6C63FF"/>
<path id="Vector_59" opacity="0.1" d="M368.143 152.954C368.143 152.954 383.73 142.661 383.73 141.517C383.73 140.374 368.143 152.954 368.143 152.954Z" fill="black"/>
<path id="Vector_60" opacity="0.1" d="M394.231 165.762C394.231 165.762 402.537 163.929 403.229 159.816C403.921 155.703 394.231 165.762 394.231 165.762Z" fill="black"/>
<path id="Vector_61" opacity="0.1" d="M401.028 176.282C401.028 176.282 412.725 170.843 412.234 169.901C411.742 168.959 401.028 176.282 401.028 176.282Z" fill="black"/>
<path id="Vector_62" opacity="0.1" d="M463.634 141.446C463.634 141.446 458.789 144.416 460.229 147.197C461.669 149.978 463.634 141.446 463.634 141.446Z" fill="black"/>
<path id="Vector_63" opacity="0.1" d="M477.983 142.661C477.983 142.661 464.181 155.008 467.303 155.241C470.424 155.475 477.983 142.661 477.983 142.661Z" fill="black"/>
<path id="Vector_64" opacity="0.1" d="M446.586 334.082C446.586 334.082 464.368 337.286 464.853 338.429C465.337 339.573 446.586 334.082 446.586 334.082Z" fill="black"/>
<path id="Vector_65" opacity="0.1" d="M452.92 345.058C452.92 345.058 462.416 350.548 462.658 352.147C462.901 353.746 452.92 345.058 452.92 345.058Z" fill="black"/>
<path id="Vector_66" opacity="0.1" d="M450.725 357.41C450.725 357.41 452.186 363.584 454.622 364.5C457.059 365.416 450.725 357.41 450.725 357.41Z" fill="black"/>
<path id="Vector_67" opacity="0.1" d="M307.059 87.2973C307.059 87.3623 307.059 87.4337 307.024 87.4987C306.692 89.5326 305.806 91.7355 303.771 92.4113C302.542 92.7362 301.228 92.6225 300.082 92.0929C296.621 90.6698 293.541 87.2518 289.845 88.077C288.087 88.4669 286.855 89.7211 285.983 91.2611C285.378 92.3697 284.913 93.5406 284.598 94.7506C283.906 97.2979 283.352 100.066 284.411 102.49C284.586 102.886 284.794 103.269 285.034 103.634C286.017 105.109 287.401 106.363 288.37 107.851C289.575 109.709 289.886 112.497 288.011 113.771C287.54 114.061 287.006 114.249 286.448 114.323C285.89 114.396 285.322 114.351 284.785 114.193C283.411 113.787 282.09 113.238 280.847 112.555C278.396 111.353 275.309 110.606 272.984 111.997C272.181 112.464 271.537 113.14 270.769 113.634C269.172 114.563 267.277 114.933 265.418 114.68C261.016 114.258 259.369 111.639 256.005 109.612C253.541 108.117 248.391 107.48 246.924 110.534C245.982 112.484 247.38 114.94 246.46 116.929C245.539 118.917 242.611 119.528 241.255 121.373C239.469 123.804 241.13 127.319 239.822 130.016C239.622 130.434 239.353 130.82 239.026 131.159C231.691 123.739 227.707 113.938 227.911 103.817C228.115 93.696 232.492 84.0437 240.121 76.8899C247.75 69.7361 258.037 65.6384 268.818 65.4584C279.599 65.2791 290.034 69.0311 297.929 75.9256L299.798 75.8606C301.619 75.7956 303.55 75.7047 305.495 75.5942C305.954 76.5085 306.314 77.4643 306.568 78.4469C307.321 81.3418 307.487 84.3445 307.059 87.2973Z" fill="black"/>
<path id="Vector_68" d="M245.934 109.625C244.985 111.574 246.384 114.03 245.47 116.012C244.556 117.994 241.608 118.612 240.265 120.457C238.472 122.894 240.133 126.409 238.832 129.1C237.337 132.173 232.824 132.654 229.363 131.757C226.406 130.965 223.693 129.523 221.448 127.551C219.202 125.58 217.488 123.134 216.447 120.418C214.101 114.147 215.617 107.246 215.008 100.625C214.748 97.7872 214.097 94.9936 213.07 92.3138C212.066 89.7146 210.695 87.1543 210.37 84.3926C210.138 82.0494 210.658 79.6945 211.865 77.6313C213.071 75.5688 214.909 73.8923 217.14 72.8195C219.991 71.5199 223.501 71.1495 225.577 68.9206C227.169 67.1921 227.508 64.7813 228.249 62.6045C230.249 56.7562 236.223 51.9866 242.784 52.0451C248.031 52.084 253.167 54.9887 258.296 53.845C261.196 53.1952 263.833 51.2458 266.823 51.5252C268.255 51.7367 269.628 52.2162 270.859 52.9353C278.82 56.9721 286.394 61.6465 293.499 66.9062C294.969 68.0947 296.578 69.1214 298.296 69.9668C299.402 70.3717 300.482 70.8382 301.529 71.3639C303.764 72.6635 304.934 75.1393 305.571 77.5436C306.335 80.4372 306.509 83.44 306.083 86.394C305.779 88.4799 304.906 90.8193 302.795 91.5145C301.562 91.8375 300.245 91.7192 299.099 91.1831C295.638 89.7731 292.565 86.355 288.869 87.1738C285.851 87.8236 284.397 91.0337 283.608 93.8474C282.916 96.3946 282.349 99.1628 283.422 101.593C284.307 103.608 286.19 105.083 287.374 106.948C288.557 108.813 288.897 111.6 287.014 112.867C284.937 114.277 282.12 112.776 279.843 111.659C277.407 110.457 274.306 109.709 271.987 111.093C271.191 111.561 270.547 112.237 269.772 112.737C268.174 113.657 266.284 114.025 264.428 113.777C260.019 113.355 258.372 110.736 255.015 108.709C252.544 107.201 247.408 106.564 245.934 109.625Z" fill="#474463"/>
<path id="Vector_69" opacity="0.1" d="M380.643 202.262C380.456 203.236 379.031 203.347 378.74 204.296C375.971 213.464 369.88 221.711 360.481 225.09C358.674 222.419 357.179 220.671 357.179 220.671C357.179 220.671 374.718 190.487 375.694 194.6C376.006 195.881 378.034 198.857 380.643 202.262Z" fill="black"/>
<path id="Vector_70" d="M381.162 195.946C381.164 201.917 379.279 207.755 375.746 212.72C372.213 217.686 367.192 221.557 361.315 223.843C355.439 226.129 348.973 226.727 342.735 225.563C336.496 224.399 330.766 221.524 326.267 217.302C321.77 213.08 318.706 207.701 317.464 201.845C316.223 195.988 316.859 189.917 319.294 184.4C321.727 178.883 325.849 174.168 331.137 170.851C336.426 167.533 342.644 165.762 349.004 165.762C353.231 165.748 357.419 166.518 361.328 168.03C365.236 169.541 368.787 171.764 371.776 174.569C374.765 177.375 377.133 180.708 378.744 184.377C380.355 188.046 381.177 191.977 381.162 195.946Z" fill="#FFC1C8"/>
<path id="Vector_71" opacity="0.1" d="M363.388 455.857L363.623 459.847C360.806 460.431 355.448 461.198 352.327 459.405C348.291 457.085 342.332 456.52 336.871 453.361C336.968 451.945 336.917 450.524 336.718 449.118L363.388 455.857Z" fill="black"/>
<path id="Vector_72" opacity="0.1" d="M409.534 464.831C409.348 465.721 409.175 466.267 409.175 466.267C409.175 466.267 387.683 464.2 381.488 461.413C381.488 459.398 381.426 456.864 381.426 456.864L408.475 459.951L409.534 464.831Z" fill="black"/>
<path id="Vector_73" d="M404.682 374.104C403.222 377.762 402.488 378.451 403.956 380.277C405.423 382.103 404.682 391.714 402.357 392.624C400.031 393.533 391.282 399.024 391.282 399.024C391.282 399.024 396.127 404.97 396.273 407.472C396.4 409.07 397.058 410.591 398.155 411.819C398.155 411.819 405.658 426.914 407.153 431.716C408.648 436.518 410.019 444.063 410.019 444.063C410.019 444.063 407.396 450.925 409.209 454.817C411.023 458.709 409.209 464.421 409.209 464.421C409.209 464.421 383.038 461.906 380.138 458.677C377.238 455.447 379.169 448.182 379.169 448.182C378.571 444.945 377.331 441.842 375.514 439.033C372.587 434.686 376.207 430.118 375.514 429.884C374.822 429.65 372.587 427.142 370.385 423.028C368.184 418.915 366.814 420.507 366.814 420.507C366.814 420.507 369.666 443.608 366.814 445.668C363.962 447.728 363.575 446.811 364.308 449.567C364.876 452.211 365.283 454.884 365.526 457.572C365.526 457.572 356.757 460.087 352.375 457.572C347.994 455.057 341.397 454.596 335.604 450.71C329.811 446.824 338.227 440.19 339.688 439.274C341.148 438.357 339.203 425.095 339.203 425.095L337.251 412.059C337.251 412.059 343.827 413.431 341.667 408.401C339.508 403.371 337.009 385.989 335.791 383.247C334.573 380.505 339.944 376.84 339.203 375.014C338.463 373.188 342.366 362.667 342.366 362.667C342.366 362.667 342.616 353.979 345.045 352.348C345.973 351.738 346.575 349.84 346.976 347.741C347.402 345.264 347.654 342.764 347.731 340.255C347.731 340.255 403.513 336.597 412.525 341.627C416.581 343.888 416.297 348.053 414.601 352.27C412.525 357.417 408.261 362.667 407.188 364.571C405.174 368.08 406.143 370.446 404.682 374.104Z" fill="#575988"/>
<path id="Vector_74" opacity="0.1" d="M414.532 352.27C407.61 354.096 398.391 356.78 396.889 358.32C394.452 360.841 386.167 344.141 386.167 344.141C386.167 344.141 386.658 356.696 375.694 351.445C366.205 346.896 350.887 347.494 346.928 347.741C347.354 345.264 347.605 342.764 347.682 340.255C347.682 340.255 403.464 336.597 412.476 341.627C416.532 343.888 416.248 348.053 414.532 352.27Z" fill="black"/>
<path id="Vector_75" d="M386.167 214.017C386.167 214.017 391.012 208.526 392.016 210.586C393.019 212.646 398.737 216.759 398.737 216.759C398.737 216.759 400.377 221.561 403.263 222.25C406.15 222.939 427.828 250.38 427.828 250.38L420.028 265.241L413.694 301.377C413.694 301.377 413.971 307.096 412.248 309.175C410.524 311.254 403.942 310.774 406.994 313.288C410.047 315.803 414.428 318.09 416.864 329.534C419.301 340.977 422.222 347.598 422.222 347.598C422.222 347.598 399.325 353.089 396.889 355.604C394.452 358.119 386.167 341.425 386.167 341.425C386.167 341.425 386.658 353.973 375.694 348.729C364.73 343.485 345.973 345.084 345.973 345.084V331.567C345.973 331.567 349.627 326.304 347.682 322.646C345.737 318.987 349.011 312.125 349.011 312.125C349.011 312.125 347.925 305.036 345.973 300.922C344.021 296.809 344.754 277.367 344.754 277.367C344.754 277.367 343.273 264.786 344.623 258.379C345.769 252.826 347.791 247.465 350.624 242.472C353.303 237.572 354.999 232.998 354.272 231.165C353.545 229.333 360.702 225.369 360.702 225.369L364.668 231.393L365.679 234.993C365.679 234.993 386.658 220.879 386.167 214.017Z" fill="#DCE6F2"/>
<path id="Vector_76" d="M421.225 245.806C421.225 245.806 434.868 258.379 436.328 260.439C437.789 262.499 442.682 273.208 436.349 276.457C430.016 279.706 405.202 284.716 402.737 282.988C400.273 281.259 385.433 284.937 385.433 284.937C385.433 284.937 360.612 290.655 365.969 281.279C371.327 271.902 384 273.481 384 273.481C384 273.481 404.475 273.448 406.662 271.532C408.849 269.615 425.35 265.501 421.613 257.028C417.875 248.554 421.225 245.806 421.225 245.806Z" fill="#FFC1C8"/>
<path id="Vector_77" opacity="0.1" d="M381.162 302.066C381.162 302.066 349.385 327.909 352.548 327.909C355.711 327.909 381.162 302.066 381.162 302.066Z" fill="black"/>
<path id="Vector_78" opacity="0.1" d="M402.357 312.587C402.357 312.587 392.258 314.867 394.21 316.245C396.162 317.623 402.357 312.587 402.357 312.587Z" fill="black"/>
<path id="Vector_79" opacity="0.1" d="M366.745 249.919C366.745 249.919 379.349 250.978 377.127 254.682C374.905 258.386 366.745 249.919 366.745 249.919Z" fill="black"/>
<path id="Vector_80" opacity="0.1" d="M358.889 360.991C358.889 360.991 357.179 365.644 358.889 368.139C360.598 370.634 358.889 376.586 358.889 376.586V397.38C358.889 397.38 358.653 412.475 364.488 417.732L358.889 360.991Z" fill="black"/>
<path id="Vector_81" opacity="0.1" d="M342.2 425.79C342.2 425.79 345.606 430.475 346.097 432.191C346.589 433.906 342.2 425.79 342.2 425.79Z" fill="black"/>
<path id="Vector_82" opacity="0.1" d="M343.052 416.413C343.052 416.413 350.97 415.042 352.188 415.841C353.407 416.641 343.052 416.413 343.052 416.413Z" fill="black"/>
<path id="Vector_83" opacity="0.1" d="M340.74 444.427C340.74 444.427 338.421 444.654 343.052 447.026C347.682 449.398 356.694 452.4 356.812 451.373C356.93 450.346 340.74 444.427 340.74 444.427Z" fill="black"/>
<path id="Vector_84" opacity="0.1" d="M374.635 421.67C375.452 421.67 385.648 421.098 385.059 422.586C384.471 424.074 374.635 421.67 374.635 421.67Z" fill="black"/>
<path id="Vector_85" opacity="0.1" d="M388.486 408.291C388.486 408.291 390.798 404.522 391.649 406.12C392.5 407.719 388.486 408.291 388.486 408.291Z" fill="black"/>
<path id="Vector_86" opacity="0.1" d="M381.162 195.946C381.166 198.752 380.751 201.545 379.93 204.244C378.588 205.387 376.269 205.4 374.615 204.549C372.677 203.548 371.41 201.729 370.15 200C368.89 198.272 367.458 196.543 365.395 195.803C362.785 194.88 359.809 195.803 357.539 197.336C355.269 198.87 353.455 200.897 351.309 202.535C349.164 204.172 346.43 205.498 343.695 205.095C341.93 204.841 340.366 203.906 338.85 203.002C336.774 201.774 334.545 199.864 332.268 199.039C329.991 198.213 328.115 199.688 325.948 199.688C324.225 200.273 322.349 201.605 322.695 203.288C322.881 203.913 323.18 204.502 323.581 205.03C324.277 206.317 324.551 207.768 324.37 209.2C324.189 210.633 323.56 211.983 322.564 213.081C319.695 209.187 317.842 204.714 317.154 200.024C316.466 195.333 316.963 190.557 318.604 186.079C320.246 181.603 322.987 177.551 326.604 174.252C330.222 170.953 334.615 168.499 339.429 167.088C344.244 165.677 349.344 165.349 354.317 166.13C359.292 166.912 364.001 168.78 368.064 171.585C372.127 174.391 375.43 178.054 377.707 182.279C379.983 186.503 381.169 191.172 381.169 195.907L381.162 195.946Z" fill="black"/>
<path id="Vector_87" d="M325.941 198.811C324.218 199.396 322.342 200.728 322.681 202.418C322.874 203.039 323.175 203.625 323.574 204.153C325.595 207.538 323.886 212.399 320.113 213.971C319.522 214.26 318.847 214.361 318.189 214.257C317.668 214.105 317.193 213.838 316.805 213.477C314.776 211.775 313.377 209.51 312.811 207.012C312.216 204.413 312.583 201.657 312.278 198.987C311.973 196.316 310.997 193.684 310.658 190.994C310.418 189.665 310.569 188.299 311.094 187.043C311.551 186.215 312.139 185.457 312.839 184.795C314.784 182.761 316.812 180.682 317.788 178.102C319.331 173.995 318.21 168.764 321.588 165.755C323.152 164.378 325.339 163.864 327.277 162.994C329.102 162.084 330.85 161.044 332.503 159.881C338.767 155.839 346.381 152.733 353.829 154.163C356.804 154.839 359.654 155.935 362.28 157.412C367.159 159.936 371.791 162.859 376.124 166.145C377.997 167.446 379.634 169.024 380.969 170.817C381.963 172.353 382.679 174.033 383.087 175.788C384.081 179.619 384.218 183.602 383.488 187.485C382.796 191.293 381.225 194.99 381.163 198.857C381.163 200.156 381.273 201.56 380.56 202.678C379.418 204.458 376.587 204.627 374.649 203.639C372.711 202.652 371.444 200.819 370.192 199.091C368.939 197.362 367.499 195.634 365.436 194.899C362.827 193.97 359.851 194.899 357.58 196.426C355.31 197.953 353.504 199.987 351.351 201.625C349.198 203.262 346.506 204.588 343.737 204.185C341.972 203.932 340.408 203.003 338.892 202.099C336.815 200.865 334.587 198.954 332.316 198.135C330.046 197.317 328.101 198.811 325.941 198.811Z" fill="#794F6A"/>
<path id="Vector_88" d="M399.81 245.806C399.81 245.806 364.004 276.905 371.306 292.455C378.608 308.005 410.76 280.564 410.76 280.564L422.222 255.663L399.81 245.806Z" fill="#F8BDC5"/>
<g id="Group_2" opacity="0.1">
<path id="Vector_89" opacity="0.1" d="M320.099 212.126C319.51 212.415 318.838 212.515 318.182 212.412C317.658 212.261 317.183 211.991 316.798 211.625C314.769 209.925 313.368 207.663 312.797 205.166C312.209 202.535 312.576 199.805 312.271 197.135C311.966 194.464 310.984 191.839 310.651 189.142C310.651 189.012 310.651 188.876 310.617 188.739C310.542 189.483 310.553 190.233 310.651 190.975C310.984 193.665 311.966 196.264 312.271 198.967C312.576 201.67 312.209 204.367 312.797 206.992C313.366 209.492 314.767 211.756 316.798 213.458C317.185 213.819 317.66 214.087 318.182 214.238C318.838 214.341 319.51 214.241 320.099 213.952C323.076 212.711 324.758 209.442 324.363 206.453C324.219 207.659 323.753 208.812 323.007 209.803C322.262 210.795 321.262 211.594 320.099 212.126Z" fill="black"/>
<path id="Vector_90" opacity="0.1" d="M383.44 185.646C382.748 189.454 381.176 193.151 381.121 197.018C381.121 198.317 381.232 199.721 380.512 200.839C379.377 202.619 376.546 202.788 374.608 201.8C372.67 200.813 371.403 198.987 370.143 197.252C368.883 195.517 367.458 193.795 365.388 193.06C362.785 192.138 359.809 193.06 357.539 194.594C355.268 196.128 353.455 198.148 351.309 199.792C349.164 201.436 346.43 202.756 343.695 202.359C341.93 202.099 340.366 201.17 338.85 200.267C336.774 199.032 334.545 197.128 332.275 196.303C330.004 195.478 328.122 196.953 325.955 196.953C324.232 197.544 322.356 198.87 322.688 200.566C322.73 200.749 322.793 200.928 322.875 201.099C323.553 199.989 324.654 199.163 325.955 198.785C328.115 198.785 330.025 197.33 332.275 198.135C334.524 198.941 336.795 200.865 338.85 202.099C340.352 203.003 341.917 203.932 343.695 204.185C346.464 204.588 349.177 203.282 351.309 201.625C353.441 199.968 355.275 197.921 357.539 196.426C359.802 194.932 362.785 193.97 365.388 194.899C367.465 195.634 368.89 197.382 370.143 199.091C371.396 200.8 372.67 202.613 374.608 203.639C376.546 204.666 379.377 204.458 380.512 202.678C381.204 201.56 381.1 200.163 381.121 198.857C381.176 194.99 382.727 191.293 383.44 187.485C383.805 185.529 383.953 183.543 383.883 181.559C383.838 182.929 383.691 184.295 383.44 185.646Z" fill="black"/>
</g>
<path id="Vector_91" opacity="0.1" d="M356.937 87.5442C356.937 87.5442 343.785 109.956 361.782 121.393C379.778 132.829 381.516 131.686 381.516 131.686C381.516 131.686 381.266 134.428 381.516 135.117C381.765 135.806 386.361 137.398 386.361 137.398C386.361 137.398 391.96 145.845 399.996 149.523C408.032 153.201 409.5 161.87 409.5 161.87C409.5 161.87 409.5 164.846 413.653 167.588C417.806 170.33 421.004 178.336 421.004 178.336V185.659C421.004 186.803 422.464 190.208 419.301 190.572C416.138 190.936 418.809 197.778 418.809 197.778C418.809 197.778 415.404 201.677 416.131 203.496C416.858 205.316 414.67 208.981 414.67 208.981C414.67 208.981 411.992 212.639 412.234 213.328C412.476 214.017 409.313 216.532 410.04 218.13C410.767 219.729 406.392 221.789 407.119 223.621C407.846 225.453 404.004 226.363 404.004 226.363L393.476 249.237C393.476 249.237 415.626 253.785 421.343 265.241L449.265 217.214C449.265 217.214 464.852 181.312 465.344 179.025C465.835 176.737 461.932 168.504 461.932 168.504L442.932 136.014L414.428 98.2791C414.428 98.2791 391.773 53.0133 356.937 87.5442Z" fill="black"/>
<path id="Vector_92" opacity="0.1" d="M385.059 96.9989C385.059 96.9989 350.839 108.273 368.863 119.71C386.887 131.146 388.596 129.996 388.596 129.996C388.596 129.996 388.354 132.745 388.596 133.427C388.839 134.11 393.442 135.715 393.442 135.715C393.442 135.715 399.048 144.162 407.084 147.84C415.12 151.518 416.588 160.187 416.588 160.187C416.588 160.187 416.588 163.163 420.741 165.905C424.894 168.647 428.05 176.653 428.05 176.653V183.97C428.05 185.113 429.51 188.518 426.34 188.889C423.17 189.259 425.856 196.095 425.856 196.095C425.856 196.095 422.443 199.994 423.177 201.807C423.911 203.62 421.717 207.298 421.717 207.298C421.717 207.298 419.038 210.956 419.28 211.645C419.522 212.334 416.352 214.849 417.086 216.447C417.82 218.046 413.431 220.106 414.165 221.938C414.899 223.77 411.043 224.68 411.043 224.68L400.522 247.547C400.522 247.547 418.768 248.431 424.527 259.893L456.304 215.557C456.304 215.557 471.899 179.655 472.383 177.367C472.868 175.08 468.985 166.821 468.985 166.821L449.985 134.331L406.641 110.859C406.641 110.859 419.896 62.4615 385.059 96.9989Z" fill="black"/>
<path id="Vector_93" d="M358.889 87.5442C358.889 87.5442 345.737 109.956 363.734 121.393C381.73 132.829 383.467 131.686 383.467 131.686C383.467 131.686 383.225 134.428 383.467 135.117C383.71 135.806 388.313 137.398 388.313 137.398C388.313 137.398 393.919 145.845 401.955 149.523C409.991 153.201 411.459 161.87 411.459 161.87C411.459 161.87 411.459 164.846 415.612 167.588C419.765 170.33 422.956 178.336 422.956 178.336V185.659C422.956 186.803 424.416 190.208 421.246 190.572C418.076 190.936 420.761 197.778 420.761 197.778C420.761 197.778 417.349 201.677 418.083 203.496C418.816 205.316 416.622 208.981 416.622 208.981C416.622 208.981 413.944 212.639 414.186 213.328C414.428 214.017 411.258 216.532 411.992 218.13C412.725 219.729 408.337 221.789 409.071 223.621C409.804 225.453 405.949 226.363 405.949 226.363L395.428 249.237C395.428 249.237 417.536 253.785 423.288 265.241L451.21 217.214C451.21 217.214 466.804 181.312 467.289 179.025C467.773 176.737 463.877 168.504 463.877 168.504L444.876 136.014L416.38 98.2921C416.38 98.2921 393.718 53.0133 358.889 87.5442Z" fill="#6C63FF"/>
<g id="Group_2_2" opacity="0.1">
<path id="Vector_94" opacity="0.1" d="M215.008 98.7989C214.752 95.9586 214.1 93.1625 213.07 90.4814C212.066 87.8821 210.695 85.3219 210.37 82.5602C210.37 82.4757 210.37 82.3977 210.37 82.3132C210.297 83.0046 210.297 83.7012 210.37 84.3926C210.695 87.1543 212.066 89.6951 213.07 92.3138C214.1 94.9923 214.752 97.7872 215.008 100.625C215.105 101.691 215.146 102.769 215.16 103.874C215.181 102.152 215.16 100.469 215.008 98.7989Z" fill="black"/>
<path id="Vector_95" opacity="0.1" d="M238.832 127.274C237.344 130.341 232.824 130.828 229.363 129.925C226.409 129.13 223.698 127.688 221.452 125.718C219.207 123.748 217.492 121.306 216.447 118.592C215.485 115.8 215.017 112.878 215.063 109.943C215.022 113.524 215.167 117.059 216.447 120.418C217.491 123.132 219.206 125.576 221.452 127.547C223.697 129.518 226.408 130.961 229.363 131.757C232.824 132.654 237.344 132.173 238.832 129.1C239.462 127.8 239.4 126.292 239.372 124.811C239.36 125.656 239.176 126.492 238.832 127.274Z" fill="black"/>
<path id="Vector_96" opacity="0.1" d="M306.083 84.5551C305.785 86.6345 304.906 88.9738 302.795 89.6691C301.565 89.992 300.251 89.8764 299.106 89.3442C295.645 87.9276 292.565 84.5096 288.869 85.3349C285.851 85.9847 284.404 89.1882 283.608 92.0084C283.031 93.7902 282.781 95.6512 282.868 97.5123C283 96.2686 283.248 95.0378 283.608 93.8344C284.404 91.0207 285.851 87.8366 288.869 87.1608C292.565 86.3421 295.617 89.7601 299.106 91.1701C300.249 91.7069 301.565 91.8245 302.795 91.5015C304.906 90.8062 305.785 88.4669 306.083 86.381C306.273 85.0528 306.343 83.711 306.291 82.3717C306.256 83.0995 306.187 83.8338 306.083 84.5551Z" fill="black"/>
<path id="Vector_97" opacity="0.1" d="M287.014 111.028C284.937 112.438 282.12 110.937 279.843 109.813C277.407 108.611 274.306 107.864 271.987 109.248C271.191 109.716 270.547 110.392 269.772 110.892C268.177 111.819 266.284 112.186 264.428 111.932C260.019 111.509 258.372 108.89 255.015 106.863C252.551 105.375 247.401 104.738 245.934 107.792C245.581 108.692 245.484 109.661 245.65 110.606C245.696 110.268 245.791 109.938 245.934 109.625C247.408 106.564 252.551 107.201 255.015 108.696C258.372 110.723 260.019 113.342 264.428 113.764C266.285 114.014 268.177 113.643 269.772 112.718C270.547 112.224 271.191 111.548 271.987 111.08C274.326 109.716 277.407 110.431 279.843 111.646C282.12 112.763 284.924 114.245 287.014 112.854C288.232 112.036 288.523 110.58 288.253 109.144C288.111 109.897 287.667 110.572 287.014 111.028Z" fill="black"/>
<path id="Vector_98" opacity="0.1" d="M245.47 114.186C244.522 116.227 241.608 116.786 240.265 118.625C239.261 119.989 239.344 121.692 239.379 123.401C239.366 122.36 239.674 121.338 240.265 120.457C241.608 118.618 244.522 118.053 245.47 116.012C245.802 115.125 245.892 114.173 245.733 113.244C245.69 113.568 245.602 113.885 245.47 114.186Z" fill="black"/>
</g>
</g>
</g>
</g>
</svg>
